<svg width="147" height="70" viewBox="0 0 147 70" fill="none" xmlns="http://www.w3.org/2000/svg">
<g clip-path="url(#clip0)">
<path d="M147 0H0V69.2578H147V0Z" fill="#0258FF"/>
<path d="M58.0207 48.1831C65.7631 45.3271 70.6642 39.105 68.9675 34.2856C67.2708 29.4662 59.6189 27.8745 51.8765 30.7305C44.1341 33.5865 39.233 39.8086 40.9297 44.628C42.6264 49.4474 50.2783 51.0391 58.0207 48.1831Z" fill="#0258FF" stroke="white"/>
<path d="M88.1352 53.6913C111.232 62.2943 132.791 61.2901 136.29 51.4482C139.789 41.6064 123.902 26.6538 100.805 18.0507C77.7088 9.44768 56.149 10.4519 52.6503 20.2938C49.1515 30.1356 65.0387 45.0882 88.1352 53.6913Z" fill="#FF7F50"/>
<path d="M12.4094 30.3002H19.2174C19.7799 30.3002 20.2538 30.3264 20.6392 30.3787C21.0286 30.427 21.3492 30.5015 21.6009 30.6021C21.8526 30.7028 22.0453 30.8276 22.179 30.9765C22.3167 31.1255 22.4169 31.3006 22.4799 31.5019C22.5428 31.7032 22.5782 31.9286 22.5861 32.1783C22.5979 32.4278 22.6038 32.7036 22.6038 33.0056C22.6038 33.3196 22.5959 33.6094 22.5802 33.8752C22.5684 34.1409 22.5231 34.3824 22.4445 34.5998C22.3698 34.8132 22.2478 35.0024 22.0787 35.1674C21.9135 35.3285 21.6756 35.4634 21.3649 35.5721C21.0581 35.6808 20.6667 35.7633 20.1909 35.8197C19.7189 35.876 19.1368 35.9042 18.4446 35.9042H13.5421V39.5758H12.4094V30.3002ZM13.5421 34.938H18.4446C18.9481 34.938 19.3709 34.9299 19.713 34.9138C20.0591 34.8937 20.3443 34.8595 20.5684 34.8112C20.7926 34.7629 20.9657 34.6944 21.0876 34.6058C21.2095 34.5173 21.298 34.4005 21.3531 34.2556C21.4121 34.1107 21.4455 33.9375 21.4534 33.7363C21.4652 33.5309 21.4711 33.2874 21.4711 33.0056C21.4711 32.7439 21.4652 32.5185 21.4534 32.3292C21.4455 32.14 21.4121 31.981 21.3531 31.8522C21.298 31.7234 21.2095 31.6207 21.0876 31.5442C20.9657 31.4677 20.7926 31.4093 20.5684 31.3691C20.3443 31.3248 20.0591 31.2966 19.713 31.2845C19.3709 31.2724 18.9481 31.2664 18.4446 31.2664H13.5421V34.938ZM23.1701 36.0491C23.1701 35.3365 23.2448 34.7467 23.3943 34.2797C23.5438 33.8127 23.7837 33.4424 24.114 33.1686C24.4444 32.8948 24.8731 32.7036 25.4001 32.5949C25.9272 32.4822 26.5683 32.4259 27.3234 32.4259C28.0785 32.4259 28.7196 32.4822 29.2466 32.5949C29.7736 32.7036 30.2023 32.8948 30.5327 33.1686C30.8631 33.4424 31.103 33.8127 31.2524 34.2797C31.4019 34.7467 31.4766 35.3365 31.4766 36.0491C31.4766 36.7617 31.4019 37.3535 31.2524 37.8245C31.103 38.2955 30.8631 38.6699 30.5327 38.9478C30.2023 39.2255 29.7736 39.4228 29.2466 39.5395C28.7196 39.6522 28.0785 39.7086 27.3234 39.7086C26.5683 39.7086 25.9272 39.6522 25.4001 39.5395C24.8731 39.4228 24.4444 39.2255 24.114 38.9478C23.7837 38.6699 23.5438 38.2955 23.3943 37.8245C23.2448 37.3535 23.1701 36.7617 23.1701 36.0491ZM24.3028 36.0491C24.3028 36.4356 24.3166 36.7717 24.3441 37.0576C24.3717 37.3435 24.4228 37.589 24.4975 37.7943C24.5762 37.9997 24.6843 38.1667 24.822 38.2955C24.9596 38.4244 25.1405 38.5271 25.3647 38.6035C25.5889 38.68 25.8603 38.7324 26.1789 38.7606C26.5014 38.7887 26.8829 38.8028 27.3234 38.8028C27.701 38.8028 28.0372 38.7948 28.3322 38.7787C28.6311 38.7585 28.8907 38.7162 29.1109 38.6518C29.3351 38.5874 29.5259 38.4968 29.6832 38.3801C29.8405 38.2593 29.9664 38.0963 30.0607 37.891C30.1591 37.6856 30.2299 37.434 30.2731 37.1361C30.3203 36.8342 30.3439 36.4718 30.3439 36.0491C30.3439 35.6345 30.3203 35.2822 30.2731 34.9923C30.2299 34.6984 30.1591 34.4528 30.0607 34.2556C29.9664 34.0583 29.8405 33.9033 29.6832 33.7906C29.5259 33.6739 29.3351 33.5873 29.1109 33.5309C28.8907 33.4705 28.6311 33.4323 28.3322 33.4162C28.0372 33.4001 27.701 33.392 27.3234 33.392C26.9458 33.392 26.6076 33.4001 26.3087 33.4162C26.0137 33.4323 25.7541 33.4705 25.5299 33.5309C25.3097 33.5873 25.1209 33.6739 24.9636 33.7906C24.8063 33.9033 24.6784 34.0583 24.5801 34.2556C24.4857 34.4528 24.4149 34.6984 24.3677 34.9923C24.3245 35.2822 24.3028 35.6345 24.3028 36.0491ZM32.7981 30.3002H33.9308V35.3728H34.3084L38.4616 32.6191H40.1607L35.3467 35.8559L40.3497 39.5758H38.6504L34.3084 36.2424H33.9308V39.5758H32.7981V30.3002ZM46.957 34.8836C46.957 34.5938 46.9353 34.3542 46.8922 34.165C46.8527 33.9718 46.7565 33.8188 46.603 33.7061C46.4496 33.5893 46.2216 33.5088 45.9188 33.4645C45.6195 33.4162 45.2108 33.392 44.6916 33.392C44.1842 33.392 43.7714 33.4383 43.4528 33.5309C43.1342 33.6195 42.8841 33.7463 42.7033 33.9114C42.5225 34.0765 42.3984 34.2737 42.3316 34.5032C42.2687 34.7327 42.2373 34.9883 42.2373 35.2701V39.5758H41.1048V32.6191H42.2373V33.7242C42.2768 33.5994 42.3493 33.4625 42.4556 33.3136C42.5619 33.1606 42.723 33.0197 42.9393 32.8908C43.1556 32.758 43.4351 32.6473 43.777 32.5587C44.1234 32.4701 44.5539 32.4259 45.069 32.4259C45.659 32.4259 46.1391 32.4802 46.5084 32.5889C46.8781 32.6936 47.1653 32.8506 47.3698 33.0599C47.5785 33.2652 47.7178 33.5209 47.7887 33.8268C47.8636 34.1328 47.9011 34.4851 47.9011 34.8836H46.957ZM51.8652 39.5758H52.243C52.1802 39.7046 52.123 39.8274 52.0718 39.9442C52.0247 40.0609 51.9655 40.1696 51.8946 40.2703C51.8241 40.3709 51.7355 40.4614 51.6292 40.542C51.5233 40.6225 51.3815 40.6909 51.2047 40.7473C51.0316 40.8077 50.8153 40.852 50.5555 40.8802C50.2962 40.9124 49.9776 40.9285 49.5998 40.9285V41.8948C50.0404 41.8948 50.4218 41.8725 50.7444 41.8284C51.067 41.788 51.3441 41.7278 51.5761 41.647C51.8121 41.5707 52.011 41.4759 52.1721 41.3634C52.3332 41.2504 52.473 41.1217 52.591 40.9768C52.709 40.8359 52.8133 40.6789 52.9035 40.5058C52.9981 40.3367 53.0924 40.1555 53.187 39.9623L53.3755 39.5758L56.7738 32.6191H55.4524L52.6204 38.8028L49.5998 32.6191H48.2784L51.8652 39.5758ZM61.8709 36.4054C62.3115 36.4054 62.6868 36.4135 62.9978 36.4296C63.3083 36.4417 63.568 36.4658 63.7763 36.502C63.9889 36.5342 64.156 36.5765 64.2781 36.6289C64.3997 36.6812 64.4923 36.7597 64.5551 36.8644C64.618 36.965 64.6574 37.0677 64.6731 37.1723C64.6929 37.273 64.7026 37.3897 64.7026 37.5226C64.7026 37.6675 64.6929 37.8004 64.6731 37.9211C64.6574 38.0379 64.616 38.1446 64.5491 38.2412C64.4823 38.3378 64.384 38.4204 64.2543 38.4888C64.1246 38.5572 63.9474 38.6156 63.7235 38.6639C63.4992 38.7122 63.2201 38.7485 62.8858 38.7726C62.5551 38.7928 62.154 38.8028 61.682 38.8028C61.1629 38.8028 60.7323 38.7887 60.39 38.7606C60.0517 38.7283 59.7823 38.6699 59.5817 38.5854C59.3811 38.5009 59.2398 38.3841 59.1572 38.2351C59.0783 38.0822 59.0392 37.8849 59.0392 37.6434H57.9063C57.9063 38.0097 57.9696 38.3197 58.0952 38.5734C58.2249 38.827 58.4375 39.0343 58.7323 39.1954C59.0271 39.3523 59.4146 39.4671 59.8946 39.5395C60.3783 39.612 60.974 39.6482 61.682 39.6482C62.2487 39.6482 62.744 39.6301 63.1689 39.5939C63.5974 39.5617 63.9651 39.5114 64.272 39.4429C64.5789 39.3705 64.8326 39.2778 65.0332 39.1651C65.2374 39.0484 65.3989 38.9115 65.5169 38.7545C65.6349 38.5935 65.7175 38.4103 65.7646 38.205C65.8117 37.9956 65.8355 37.7601 65.8355 37.4984C65.8355 37.2368 65.8117 37.0073 65.7646 36.81C65.7175 36.6087 65.6349 36.4356 65.5169 36.2907C65.4029 36.1417 65.2495 36.0048 65.0566 35.8801C64.8641 35.7552 64.62 35.6626 64.3252 35.6022C64.03 35.5418 63.68 35.4996 63.2748 35.4754C62.8737 35.4513 62.4057 35.4392 61.8709 35.4392C61.4303 35.4392 61.0549 35.4392 60.744 35.4392C60.4335 35.4352 60.1717 35.4231 59.9595 35.403C59.7509 35.3788 59.5857 35.3446 59.4637 35.3003C59.3421 35.256 59.2495 35.1916 59.1866 35.1071C59.1238 35.0225 59.0823 34.9158 59.0626 34.787C59.0469 34.6541 59.0392 34.5193 59.0392 34.3824C59.0392 34.1489 59.0904 33.9657 59.1927 33.8329C59.295 33.7 59.4637 33.6014 59.6997 33.537C59.9357 33.4726 60.2466 33.4323 60.6321 33.4162C61.0175 33.4001 61.4935 33.392 62.0598 33.392C62.5789 33.392 63.0074 33.4082 63.3457 33.4404C63.6881 33.4685 63.9595 33.5229 64.1601 33.6034C64.3606 33.6799 64.5 33.7866 64.5789 33.9235C64.6615 34.0603 64.7026 34.2375 64.7026 34.4549H65.8355C65.8355 34.1046 65.7783 33.8027 65.6643 33.5491C65.5503 33.2954 65.3498 33.0861 65.0626 32.921C64.7795 32.752 64.3941 32.6271 63.9063 32.5466C63.4226 32.4661 62.8069 32.4259 62.0598 32.4259C61.3046 32.4259 60.6635 32.4601 60.1363 32.5285C59.6095 32.5969 59.1806 32.7097 58.8503 32.8667C58.5201 33.0197 58.2801 33.221 58.1306 33.4705C57.9812 33.7161 57.9063 34.0201 57.9063 34.3824C57.9063 34.6481 57.9301 34.8957 57.9772 35.1252C58.0243 35.3506 58.1049 35.5418 58.2192 35.6989C58.3332 35.8519 58.4867 35.9747 58.6792 36.0673C58.8757 36.1598 59.1198 36.2323 59.411 36.2846C59.7058 36.3329 60.0557 36.3651 60.4609 36.3813C60.8661 36.3973 61.3361 36.4054 61.8709 36.4054ZM74.142 39.5758V35.6506C74.142 35.2319 74.1105 34.8796 74.0473 34.5938C73.9845 34.3039 73.8588 34.0704 73.67 33.8933C73.4811 33.7161 73.2136 33.5893 72.8677 33.5128C72.5213 33.4323 72.0654 33.392 71.4988 33.392C70.8854 33.392 70.382 33.4383 69.9885 33.5309C69.5991 33.6195 69.2926 33.7463 69.0683 33.9114C68.8439 34.0724 68.6889 34.2677 68.6023 34.4972C68.5197 34.7266 68.4782 34.9823 68.4782 35.2641V39.5758H67.3457V30.3002H68.4782V33.7181C68.5572 33.5289 68.6691 33.3659 68.8145 33.229C68.9603 33.0921 69.1275 32.9754 69.3159 32.8788C69.5088 32.7821 69.7155 32.7057 69.9354 32.6493C70.1557 32.5889 70.378 32.5426 70.6023 32.5104C70.8302 32.4782 71.0526 32.456 71.2688 32.444C71.4891 32.4319 71.6917 32.4259 71.8766 32.4259C72.38 32.4259 72.8125 32.4581 73.1742 32.5225C73.5403 32.5828 73.8488 32.6754 74.1005 32.8003C74.3562 32.921 74.5608 33.072 74.7143 33.2532C74.8677 33.4343 74.9853 33.6457 75.0683 33.8872C75.1545 34.1247 75.2116 34.3925 75.239 34.6904C75.2668 34.9843 75.2805 35.3043 75.2805 35.6506L75.2745 39.5758H74.142ZM76.7968 30.3002H77.9293V35.3728H78.3071L82.4602 32.6191H84.1593L79.3454 35.8559L84.3482 39.5758H82.649L78.3071 36.2424H77.9293V39.5758H76.7968V30.3002ZM85.4807 32.6191H86.6136V39.5758H85.4807V32.6191ZM86.6136 31.4596H85.4807V30.3002H86.6136V31.4596ZM95.2975 39.5758V35.7109C95.2975 35.2802 95.2661 34.9179 95.2032 34.624C95.14 34.326 95.0144 34.0865 94.8255 33.9053C94.6366 33.7242 94.3692 33.5934 94.0232 33.5128C93.6773 33.4323 93.221 33.392 92.6547 33.392C92.0409 33.392 91.5375 33.4383 91.1444 33.5309C90.755 33.6235 90.4481 33.7544 90.2238 33.9235C89.9998 34.0925 89.8444 34.2959 89.7578 34.5334C89.6752 34.7709 89.6342 35.0346 89.6342 35.3245V39.5758H88.5013V32.6191H89.6342V33.7785C89.7167 33.5813 89.8347 33.4122 89.9878 33.2713C90.1412 33.1264 90.3144 33.0035 90.5073 32.9029C90.6998 32.8022 90.9084 32.7217 91.1323 32.6613C91.3567 32.5969 91.581 32.5486 91.8049 32.5164C92.0293 32.4802 92.2455 32.456 92.4541 32.444C92.6664 32.4319 92.8589 32.4259 93.0321 32.4259C93.5355 32.4259 93.968 32.4581 94.3301 32.5225C94.6958 32.5869 95.0047 32.6815 95.2564 32.8063C95.5117 32.9311 95.7163 33.0861 95.8698 33.2713C96.0232 33.4565 96.1412 33.6718 96.2238 33.9174C96.3104 34.159 96.3672 34.4307 96.395 34.7327C96.4223 35.0306 96.436 35.3567 96.436 35.7109L96.4304 39.5758H95.2975ZM104.719 38.6216C104.707 38.6699 104.619 38.7907 104.453 38.984C104.335 39.1289 104.178 39.2577 103.982 39.3705C103.785 39.4791 103.521 39.5637 103.191 39.6241C102.865 39.6885 102.434 39.7207 101.899 39.7207C101.187 39.7207 100.579 39.6825 100.076 39.606C99.5726 39.5335 99.1618 39.4208 98.8432 39.2678C98.5246 39.1108 98.2906 38.9115 98.1412 38.6699C97.9954 38.4284 97.9229 38.1406 97.9229 37.8064C97.9229 37.4562 97.962 37.1602 98.0409 36.9187C98.1235 36.6731 98.2415 36.4678 98.3946 36.3027C98.552 36.1377 98.7409 36.0089 98.9612 35.9162C99.1815 35.8237 99.4312 35.7532 99.7103 35.7049C99.9934 35.6566 100.302 35.6264 100.637 35.6143C100.971 35.6022 101.327 35.5962 101.704 35.5962C102.243 35.5962 102.693 35.6204 103.055 35.6687C103.417 35.713 103.712 35.7713 103.94 35.8438C104.172 35.9122 104.347 35.9867 104.465 36.0673C104.583 36.1478 104.668 36.2222 104.719 36.2907C104.719 35.8398 104.699 35.4553 104.66 35.1373C104.625 34.8192 104.564 34.5535 104.477 34.3401C104.395 34.1268 104.286 33.9577 104.153 33.8329C104.019 33.704 103.854 33.6074 103.657 33.543C103.464 33.4786 103.238 33.4383 102.979 33.4222C102.719 33.4021 102.422 33.392 102.088 33.392C101.569 33.392 101.138 33.4061 100.796 33.4343C100.454 33.4585 100.182 33.5088 99.9818 33.5853C99.7812 33.6618 99.6394 33.7685 99.5569 33.9053C99.4743 34.0382 99.4332 34.2133 99.4332 34.4307H98.3003C98.3003 34.0644 98.3631 33.7544 98.4892 33.5008C98.6189 33.2471 98.8311 33.0418 99.1263 32.8848C99.4252 32.7238 99.8166 32.607 100.3 32.5345C100.784 32.4621 101.38 32.4259 102.088 32.4259C102.78 32.4259 103.366 32.4842 103.846 32.601C104.326 32.7177 104.713 32.923 105.008 33.2169C105.307 33.5108 105.521 33.9074 105.651 34.4066C105.785 34.9017 105.852 35.5298 105.852 36.2907V39.5758H104.719V38.6216ZM102.088 38.8028C102.587 38.8028 103.004 38.7787 103.339 38.7303C103.677 38.682 103.948 38.6096 104.153 38.513C104.357 38.4163 104.503 38.2955 104.589 38.1506C104.676 38.0057 104.719 37.8366 104.719 37.6434C104.719 37.4501 104.668 37.2871 104.566 37.1542C104.467 37.0173 104.3 36.9066 104.064 36.8221C103.832 36.7375 103.523 36.6772 103.138 36.6409C102.753 36.6007 102.277 36.5805 101.71 36.5805C101.144 36.5805 100.686 36.5906 100.336 36.6107C99.9894 36.6308 99.722 36.6772 99.5335 36.7496C99.3446 36.8221 99.2165 36.9288 99.1497 37.0697C99.0869 37.2106 99.0554 37.4018 99.0554 37.6434C99.0554 37.8849 99.0889 38.0822 99.1557 38.2351C99.2266 38.3841 99.368 38.5009 99.5806 38.5854C99.7929 38.6699 100.098 38.7283 100.495 38.7606C100.896 38.7887 101.427 38.8028 102.088 38.8028Z" fill="white"/>
<path d="M13.5421 18.7057V27.2084H12.4094V17.9328H14.2973L19.5773 26.0489L24.8574 17.9328H26.6626V27.2084H25.5299V18.8325L20.1496 27.2084H19.0051L13.5421 18.7057ZM35.3172 26.2542C35.3054 26.3025 35.2169 26.4233 35.0517 26.6165C34.9337 26.7615 34.7764 26.8903 34.5798 27.003C34.3831 27.1117 34.1196 27.1963 33.7892 27.2567C33.4628 27.3211 33.0321 27.3533 32.4972 27.3533C31.7854 27.3533 31.1777 27.315 30.6743 27.2385C30.1709 27.1661 29.7599 27.0534 29.4413 26.9004C29.1227 26.7433 28.8887 26.5441 28.7393 26.3025C28.5938 26.061 28.521 25.7731 28.521 25.439C28.521 25.0887 28.5603 24.7928 28.639 24.5513C28.7215 24.3057 28.8395 24.1004 28.993 23.9353C29.1503 23.7702 29.339 23.6414 29.5593 23.5488C29.7795 23.4562 30.0293 23.3858 30.3085 23.3375C30.5917 23.2892 30.9004 23.259 31.2348 23.2469C31.569 23.2348 31.925 23.2288 32.3025 23.2288C32.8414 23.2288 33.2917 23.253 33.6535 23.3012C34.0154 23.3455 34.3104 23.4039 34.5385 23.4764C34.7705 23.5448 34.9455 23.6193 35.0635 23.6998C35.1815 23.7803 35.2661 23.8548 35.3172 23.9232C35.3172 23.4724 35.2976 23.0879 35.2582 22.7698C35.2228 22.4518 35.1618 22.1861 35.0753 21.9727C34.9927 21.7593 34.8846 21.5902 34.7508 21.4654C34.6171 21.3366 34.452 21.24 34.2553 21.1756C34.0626 21.1112 33.8364 21.0709 33.5769 21.0548C33.3173 21.0347 33.0203 21.0246 32.686 21.0246C32.1669 21.0246 31.7362 21.0387 31.394 21.0669C31.0519 21.091 30.7805 21.1414 30.5799 21.2179C30.3793 21.2944 30.2377 21.4011 30.1551 21.5379C30.0725 21.6708 30.0312 21.8459 30.0312 22.0633H28.8985C28.8985 21.6969 28.9615 21.387 29.0873 21.1333C29.2171 20.8797 29.4295 20.6744 29.7245 20.5174C30.0234 20.3563 30.4147 20.2396 30.8985 20.1671C31.3822 20.0946 31.9781 20.0584 32.686 20.0584C33.3782 20.0584 33.9642 20.1168 34.4441 20.2335C34.9239 20.3503 35.3113 20.5556 35.6063 20.8495C35.9052 21.1434 36.1195 21.5399 36.2493 22.0391C36.3831 22.5343 36.4499 23.1623 36.4499 23.9232V27.2084H35.3172V26.2542ZM32.686 26.4354C33.1855 26.4354 33.6024 26.4112 33.9367 26.3629C34.275 26.3146 34.5463 26.2421 34.7508 26.1455C34.9554 26.0489 35.1009 25.9281 35.1874 25.7832C35.274 25.6383 35.3172 25.4692 35.3172 25.2759C35.3172 25.0827 35.2661 24.9196 35.1638 24.7868C35.0655 24.6499 34.8984 24.5392 34.6624 24.4547C34.4303 24.3701 34.1216 24.3097 33.7361 24.2735C33.3507 24.2332 32.8748 24.2131 32.3085 24.2131C31.7421 24.2131 31.2839 24.2232 30.9339 24.2433C30.5878 24.2634 30.3203 24.3097 30.1315 24.3822C29.9428 24.4547 29.8149 24.5614 29.7481 24.7023C29.6851 24.8432 29.6537 25.0344 29.6537 25.2759C29.6537 25.5175 29.6871 25.7147 29.754 25.8677C29.8248 26.0167 29.9664 26.1335 30.1787 26.218C30.3911 26.3025 30.6959 26.3609 31.0932 26.3931C31.4943 26.4213 32.0253 26.4354 32.686 26.4354ZM43.8185 22.5162C43.8185 22.2263 43.7967 21.9868 43.7536 21.7976C43.7142 21.6043 43.6179 21.4514 43.4645 21.3386C43.311 21.2219 43.0831 21.1414 42.7802 21.0971C42.481 21.0488 42.0722 21.0246 41.5531 21.0246C41.0456 21.0246 40.6328 21.0709 40.3142 21.1635C39.9955 21.2521 39.7458 21.3789 39.5649 21.5439C39.3839 21.709 39.26 21.9063 39.1932 22.1358C39.1303 22.3652 39.0988 22.6209 39.0988 22.9027V27.2084H37.9661V20.2517H39.0988V21.3567C39.1381 21.232 39.2109 21.0951 39.3171 20.9461C39.4233 20.7932 39.5845 20.6522 39.8008 20.5234C40.0171 20.3906 40.2965 20.2798 40.6384 20.1913C40.9848 20.1027 41.4153 20.0584 41.9304 20.0584C42.5205 20.0584 43.0005 20.1128 43.3702 20.2214C43.7395 20.3261 44.0267 20.4831 44.2313 20.6925C44.4399 20.8978 44.5793 21.1535 44.6501 21.4594C44.725 21.7654 44.7625 22.1176 44.7625 22.5162H43.8185ZM45.895 20.2517H47.0279V27.2084H45.895V20.2517ZM47.0279 19.0922H45.895V17.9328H47.0279V19.0922ZM55.6824 26.2542C55.6703 26.3025 55.5821 26.4233 55.417 26.6165C55.299 26.7615 55.1415 26.8903 54.945 27.003C54.748 27.1117 54.4846 27.1963 54.1544 27.2567C53.8278 27.3211 53.3972 27.3533 52.8624 27.3533C52.1504 27.3533 51.5426 27.315 51.0392 27.2385C50.5358 27.1661 50.125 27.0534 49.8064 26.9004C49.4878 26.7433 49.2539 26.5441 49.1044 26.3025C48.9586 26.061 48.8862 25.7731 48.8862 25.439C48.8862 25.0887 48.9252 24.7928 49.0042 24.5513C49.0867 24.3057 49.2047 24.1004 49.3582 23.9353C49.5152 23.7702 49.7041 23.6414 49.9244 23.5488C50.1447 23.4562 50.3944 23.3858 50.6735 23.3375C50.9566 23.2892 51.2655 23.259 51.5998 23.2469C51.9341 23.2348 52.2901 23.2288 52.6675 23.2288C53.2063 23.2288 53.6566 23.253 54.0187 23.3012C54.3803 23.3455 54.6755 23.4039 54.9035 23.4764C55.1355 23.5448 55.3107 23.6193 55.4287 23.6998C55.5467 23.7803 55.6312 23.8548 55.6824 23.9232C55.6824 23.4724 55.6627 23.0879 55.6232 22.7698C55.5877 22.4518 55.5269 22.1861 55.4403 21.9727C55.3578 21.7593 55.2498 21.5902 55.1161 21.4654C54.9824 21.3366 54.8169 21.24 54.6204 21.1756C54.4279 21.1112 54.2015 21.0709 53.9422 21.0548C53.6824 21.0347 53.3856 21.0246 53.0513 21.0246C52.5322 21.0246 52.1012 21.0387 51.7593 21.0669C51.417 21.091 51.1455 21.1414 50.945 21.2179C50.7444 21.2944 50.6026 21.4011 50.5201 21.5379C50.4375 21.6708 50.3964 21.8459 50.3964 22.0633H49.2635C49.2635 21.6969 49.3268 21.387 49.4524 21.1333C49.5821 20.8797 49.7947 20.6744 50.0895 20.5174C50.3884 20.3563 50.7798 20.2396 51.2635 20.1671C51.7472 20.0946 52.3433 20.0584 53.0513 20.0584C53.7432 20.0584 54.3292 20.1168 54.8092 20.2335C55.2889 20.3503 55.6763 20.5556 55.9716 20.8495C56.2704 21.1434 56.4846 21.5399 56.6143 22.0391C56.748 22.5343 56.8149 23.1623 56.8149 23.9232V27.2084H55.6824V26.2542ZM53.0513 26.4354C53.5507 26.4354 53.9675 26.4112 54.3018 26.3629C54.6401 26.3146 54.9115 26.2421 55.1161 26.1455C55.3203 26.0489 55.4661 25.9281 55.5527 25.7832C55.6389 25.6383 55.6824 25.4692 55.6824 25.2759C55.6824 25.0827 55.6312 24.9196 55.5289 24.7868C55.4307 24.6499 55.2635 24.5392 55.0275 24.4547C54.7956 24.3701 54.4867 24.3097 54.1012 24.2735C53.7158 24.2332 53.2398 24.2131 52.6735 24.2131C52.1073 24.2131 51.6489 24.2232 51.299 24.2433C50.953 24.2634 50.6856 24.3097 50.4967 24.3822C50.3078 24.4547 50.1802 24.5614 50.1133 24.7023C50.0501 24.8432 50.0187 25.0344 50.0187 25.2759C50.0187 25.5175 50.0521 25.7147 50.1189 25.8677C50.1898 26.0167 50.3316 26.1335 50.5438 26.218C50.7561 26.3025 51.061 26.3609 51.4585 26.3931C51.8596 26.4213 52.3904 26.4354 53.0513 26.4354Z" fill="white"/>
</g>
<defs>
<clipPath id="clip0">
<rect width="147" height="69.67" fill="white"/>
</clipPath>
</defs>
</svg>
